{"title":"Daddys Home 2 2017 Movies 720p BluRay x264 5.1 with Sample ☻rDX☻","magnet":"magnet:?xt=urn:btih:f42416fd5c2b58d875bea1ecd989e90f40d77a7e&dn=Daddys+Home+2+2017+Movies+720p+BluRay+x264+5.1+with+Sample+%E2%98%BBrDX%E2%98%BB&tr=udp%3A%2F%2Ftracker.leechers-paradise.org%3A6969&tr=udp%3A%2F%2Fzer0day.ch%3A1337&tr=udp%3A%2F%2Fopen.demonii.com%3A1337&tr=udp%3A%2F%2Ftracker.coppersurfer.tk%3A6969&tr=udp%3A%2F%2Fexodus.desync.com%3A6969","uploader":"basicssom","categoryP":"video","categoryS":"hd___movies","size":"1048160114","seeders":"1","leechers":"68","description":"----------------------------------------------------------------\r\nDaddys Home 2 2017 Movies 720p BluRay x264 5.1 with Sample &#x263B;rDX&#x263B;\r\n\r\nSCREEN SHOTS &amp; POSTER:\r\n   <a href=\"\nhttp://postimage.co.nr/2018/2/ipad/index.html\" rel=\"nofollow\" target=\"_NEW\">\nhttp://postimage.co.nr/2018/2/ipad/index.html</a> <a href=\"\nhttp://postimage.co.nr/2018/2/ipad/1.html\" rel=\"nofollow\" target=\"_NEW\">\nhttp://postimage.co.nr/2018/2/ipad/1.html</a> <a href=\"\nhttp://postimage.co.nr/2018/2/ipad/2.html\" rel=\"nofollow\" target=\"_NEW\">\nhttp://postimage.co.nr/2018/2/ipad/2.html</a>   <a href=\"\nhttp://postimage.co.nr/2018/2/ipad/3.html\" rel=\"nofollow\" target=\"_NEW\">\nhttp://postimage.co.nr/2018/2/ipad/3.html</a>   <a href=\"\nhttp://postimage.co.nr/2018/2/ipad/4.html\" rel=\"nofollow\" target=\"_NEW\">\nhttp://postimage.co.nr/2018/2/ipad/4.html</a>   <a href=\"\nhttp://postimage.co.nr/2018/2/ipad/5.html\" rel=\"nofollow\" target=\"_NEW\">\nhttp://postimage.co.nr/2018/2/ipad/5.html</a>   <a href=\"\nhttp://postimage.co.nr/2018/2/ipad/6.html\" rel=\"nofollow\" target=\"_NEW\">\nhttp://postimage.co.nr/2018/2/ipad/6.html</a>   <a href=\"\nhttp://postimage.co.nr/2018/2/ipad/7.html\" rel=\"nofollow\" target=\"_NEW\">\nhttp://postimage.co.nr/2018/2/ipad/7.html</a>   <a href=\"\nhttp://postimage.co.nr/2018/2/ipad/8.html\" rel=\"nofollow\" target=\"_NEW\">\nhttp://postimage.co.nr/2018/2/ipad/8.html</a>   <a href=\"\nhttp://postimage.co.nr/2018/2/ipad/9.html\" rel=\"nofollow\" target=\"_NEW\">\nhttp://postimage.co.nr/2018/2/ipad/9.html</a>   <a href=\"\nhttp://postimage.co.nr/2018/2/ipad/10.html\" rel=\"nofollow\" target=\"_NEW\">\nhttp://postimage.co.nr/2018/2/ipad/10.html</a>\r\n\r\nFile size                                : 989 MiB\r\nDuration                                 : 1 h 40 min\r\nOverall bit rate                         : 1 382 kb/s\r\nMovie name                               : Daddys Home 2 2017 Movies 720p BluRay x264 5.1 &#x263B;rDX&#x263B;\r\n\r\nVideo\r\nID                                       : 2\r\nFormat                                   : AVC\r\nFormat/Info                              : Advanced Video Codec\r\nFormat profile                           : <a href=\"/cdn-cgi/l/email-protection\" class=\"__cf_email__\" data-cfemail=\"e6ae8f818ea6aad2\">[email&#xA0;protected]</a>\r\nFormat settings, CABAC                   : Yes\r\nFormat settings, ReFrames                : 4 frames\r\nCodec ID                                 : V_MPEG4/ISO/AVC\r\nDuration                                 : 1 h 40 min\r\nBit rate                                 : 985 kb/s\r\nWidth                                    : 1 280 pixels\r\nHeight                                   : 720 pixels\r\nDisplay aspect ratio                     : 16:9\r\nFrame rate mode                          : Constant\r\nFrame rate                               : 23.976 (24000/1001) FPS\r\nColor space                              : YUV\r\nChroma subsampling                       : 4:2:0\r\nBit depth                                : 8 bits\r\nScan type                                : Progressive\r\nBits/(Pixel*Frame)                       : 0.045\r\nStream size                              : 694 MiB (70%)\r\nTitle                                    : &#x263B;rDX&#x263B;\r\nWriting library                          : x264\r\n\r\nAudio\r\nID                                       : 1\r\nFormat                                   : AC-3\r\nFormat/Info                              : Audio Coding 3\r\nMode extension                           : CM (complete main)\r\nFormat settings, Endianness              : Big\r\nCodec ID                                 : A_AC3\r\nDuration                                 : 1 h 40 min\r\nBit rate mode                            : Constant\r\nBit rate                                 : 384 kb/s\r\nChannel(s)                               : 6 channels\r\nChannel positions                        : Front: L C R, Side: L R, LFE\r\nSampling rate                            : 48.0 kHz\r\nFrame rate                               : 31.250 FPS (1536 spf)\r\nBit depth                                : 16 bits\r\nCompression mode                         : Lossy\r\nDelay relative to video                  : -21 ms\r\nStream size                              : 275 MiB (28%)\r\nTitle                                    : &#x263B;rDX&#x263B;\r\nDefault                                  : Yes\r\nForced                                   : No","last_updated":"2018-02-07T12:04:22.336Z","parsed":{"xt":"urn:btih:f42416fd5c2b58d875bea1ecd989e90f40d77a7e","dn":"Daddys Home 2 2017 Movies 720p BluRay x264 5.1 with Sample ☻rDX☻","tr":["udp://exodus.desync.com:6969","udp://open.demonii.com:1337","udp://tracker.coppersurfer.tk:6969","udp://tracker.leechers-paradise.org:6969","udp://zer0day.ch:1337"],"infoHash":"f42416fd5c2b58d875bea1ecd989e90f40d77a7e","infoHashBuffer":{"type":"Buffer","data":[244,36,22,253,92,43,88,216,117,190,161,236,217,137,233,15,64,215,122,126]},"name":"Daddys Home 2 2017 Movies 720p BluRay x264 5.1 with Sample ☻rDX☻","announce":["udp://exodus.desync.com:6969","udp://open.demonii.com:1337","udp://tracker.coppersurfer.tk:6969","udp://tracker.leechers-paradise.org:6969","udp://zer0day.ch:1337"],"urlList":[]}}